<svg width="491" height="74" viewBox="0 0 491 74" fill="none" xmlns="http://www.w3.org/2000/svg">
<path d="M25.051 56.8163C17.4915 56.8163 12.1597 52.5531 11.5798 47.0522C11.5534 46.823 11.7511 46.6135 11.9818 46.6135H19.0996C19.2842 46.6135 19.4292 46.7444 19.4621 46.9212C19.8905 49.0954 22.0127 50.7129 24.9982 50.7129C27.9838 50.7129 29.7369 49.3246 29.7369 47.5499C29.7369 42.0621 12.2652 45.5526 12.2652 34.2954C12.2652 29.194 16.8391 25.088 24.4842 25.088C32.1293 25.088 36.2616 28.9386 36.8877 34.7931C36.914 35.0223 36.7229 35.2384 36.4857 35.2384H29.7764C29.5919 35.2384 29.4403 35.1009 29.4139 34.9175C29.058 32.7106 27.1929 31.2503 24.2601 31.2503C21.3273 31.2503 19.851 32.4159 19.851 34.1906C19.851 39.7897 36.9865 36.2993 37.2106 47.5499C37.2106 52.815 32.5774 56.8097 25.0444 56.8097L25.051 56.8163Z" fill="#1C263B"/>
<path d="M51.3341 25.5988H44.2953C44.0806 25.5988 43.9065 25.7717 43.9065 25.9851V55.9322C43.9065 56.1456 44.0806 56.3186 44.2953 56.3186H51.3341C51.5489 56.3186 51.723 56.1456 51.723 55.9322V25.9851C51.723 25.7717 51.5489 25.5988 51.3341 25.5988Z" fill="#1C263B"/>
<path d="M81.3545 39.351C81.3545 34.4133 78.626 31.7545 74.4937 31.7545C70.3613 31.7545 67.5142 34.4198 67.5142 39.351V55.9322C67.5142 56.1483 67.3429 56.3186 67.1254 56.3186H60.0866C59.8691 56.3186 59.6978 56.1483 59.6978 55.9322V25.9851C59.6978 25.769 59.8691 25.5988 60.0866 25.5988H67.5142V29.4232C69.5243 26.8168 72.879 25.1535 76.8399 25.1535C84.0369 25.1535 89.1709 29.8096 89.1709 38.2966V55.9322C89.1709 56.1483 88.9996 56.3186 88.7821 56.3186H81.7433C81.5258 56.3186 81.3545 56.1483 81.3545 55.9322V39.351Z" fill="#1C263B"/>
<path d="M108.969 25.1011C113.826 25.1011 117.339 27.3211 119.178 29.9798V25.9851C119.178 25.769 119.349 25.5988 119.567 25.5988H126.658C126.876 25.5988 127.047 25.769 127.047 25.9851V56.5412C127.047 64.858 121.913 71.4591 111.757 71.4591C103.242 71.4591 97.2313 67.3203 96.2427 60.549C96.2097 60.3133 96.4008 60.0906 96.6447 60.0906H103.677C103.842 60.0906 103.973 60.1954 104.026 60.346C104.909 62.972 107.75 64.6943 111.539 64.6943C115.83 64.6943 119.185 62.2582 119.185 56.5412V51.7738C117.346 54.4391 113.826 56.8228 108.976 56.8228C101.1 56.8228 94.8521 50.4444 94.8521 40.8506C94.8521 31.2568 101.1 25.1011 108.976 25.1011H108.969ZM110.979 31.9182C106.794 31.9182 102.833 35.0223 102.833 40.8441C102.833 46.6658 106.794 49.9926 110.979 49.9926C115.164 49.9926 119.185 46.7772 119.185 40.9554C119.185 35.1336 115.276 31.9182 110.979 31.9182Z" fill="#1C263B"/>
<path d="M164.159 55.9322C164.159 56.1483 163.987 56.3186 163.77 56.3186H156.283V52.4352C154.332 55.0416 150.925 56.7049 147.082 56.7049C139.879 56.7049 134.692 52.0488 134.692 43.6207V25.9851C134.692 25.769 134.864 25.5988 135.081 25.5988H142.12C142.337 25.5988 142.509 25.769 142.509 25.9851V42.514C142.509 47.4517 145.244 50.1104 149.369 50.1104C153.495 50.1104 156.29 47.4517 156.29 42.514V25.9851C156.29 25.769 156.461 25.5988 156.678 25.5988H163.776C163.994 25.5988 164.165 25.769 164.165 25.9851V55.9322H164.159Z" fill="#1C263B"/>
<path d="M172.516 15.2846H179.554C179.772 15.2846 179.943 15.4549 179.943 15.671V55.9322C179.943 56.1483 179.772 56.3186 179.554 56.3186H172.516C172.298 56.3186 172.127 56.1483 172.127 55.9322V15.671C172.127 15.4549 172.298 15.2846 172.516 15.2846Z" fill="#1C263B"/>
<path d="M200.031 25.1011C204.994 25.1011 208.401 27.4324 210.24 29.9798V25.9851C210.24 25.769 210.412 25.5988 210.629 25.5988H217.721C217.938 25.5988 218.109 25.769 218.109 25.9851V55.9322C218.109 56.1483 217.938 56.3186 217.721 56.3186H210.629C210.412 56.3186 210.24 56.1483 210.24 55.9322V51.8262C208.401 54.485 204.882 56.8163 199.972 56.8163C192.156 56.8163 185.908 50.4379 185.908 40.8441C185.908 31.2503 192.156 25.0945 200.031 25.0945V25.1011ZM202.042 31.9182C197.856 31.9182 193.896 35.0223 193.896 40.8441C193.896 46.6658 197.856 49.9926 202.042 49.9926C206.227 49.9926 210.247 46.7772 210.247 40.9554C210.247 35.1336 206.339 31.9182 202.042 31.9182Z" fill="#1C263B"/>
<path d="M233.453 56.3186H226.414C226.196 56.3186 226.025 56.1483 226.025 55.9322V25.9851C226.025 25.769 226.196 25.5988 226.414 25.5988H233.453C233.67 25.5988 233.841 25.769 233.841 25.9851V30.3662C235.733 27.308 238.824 25.291 242.917 25.16C243.141 25.1534 243.332 25.3368 243.332 25.5595V33.3065H241.269C236.629 33.3065 233.841 35.0812 233.841 41.0143V55.9322C233.841 56.1483 233.67 56.3186 233.453 56.3186Z" fill="#1C263B"/>
<path d="M259.96 56.7639C253.04 56.7639 248.182 53.3258 247.675 47.7791H251.695C252.025 51.1058 254.931 53.4896 259.894 53.4896C264.25 53.4896 266.702 51.1582 266.702 48.2768C266.702 40.7917 248.4 45.1727 248.4 33.8042C248.4 29.3119 252.69 25.5988 259.11 25.5988C265.529 25.5988 269.938 29.0368 270.267 34.8586H266.366C266.142 31.4729 263.631 28.9255 258.997 28.9255C254.924 28.9255 252.354 31.0865 252.354 33.7519C252.354 41.9573 270.379 37.5763 270.551 48.2834C270.551 53.1621 266.254 56.7704 259.947 56.7704L259.96 56.7639Z" fill="#1C263B"/>
<path d="M299.813 26.2864C299.872 26.1358 300.017 26.0375 300.176 26.0375H303.932L285.947 70.3262C285.887 70.4703 285.742 70.5685 285.584 70.5685H281.768L287.627 56.2989C287.667 56.2073 287.667 56.1025 287.627 56.0042L275.191 26.0375H279.224C279.382 26.0375 279.527 26.1358 279.587 26.2798L289.505 50.9618C289.637 51.2892 290.099 51.2827 290.23 50.9618L299.82 26.2864H299.813Z" fill="#1C263B"/>
<path d="M320.606 56.7639C313.686 56.7639 308.829 53.3258 308.322 47.7791H312.342C312.671 51.1058 315.578 53.4896 320.54 53.4896C324.897 53.4896 327.349 51.1582 327.349 48.2768C327.349 40.7917 309.047 45.1727 309.047 33.8042C309.047 29.3119 313.337 25.5988 319.756 25.5988C326.175 25.5988 330.585 29.0368 330.914 34.8586H327.012C326.788 31.4729 324.277 28.9255 319.644 28.9255C315.571 28.9255 313.001 31.0865 313.001 33.7519C313.001 41.9573 331.026 37.5763 331.198 48.2834C331.198 53.1621 326.9 56.7704 320.593 56.7704L320.606 56.7639Z" fill="#1C263B"/>
<path d="M340.576 29.6982C340.576 29.4821 340.405 29.3119 340.187 29.3119H336.338V26.0441H340.187C340.405 26.0441 340.576 25.8738 340.576 25.6577V18.8274C340.576 18.6113 340.747 18.4411 340.965 18.4411H344.148C344.366 18.4411 344.537 18.6113 344.537 18.8274V25.6577C344.537 25.8738 344.708 26.0441 344.926 26.0441H352.907V29.3119H344.926C344.708 29.3119 344.537 29.4821 344.537 29.6982V48.1131C344.537 51.8327 345.822 52.9918 349.335 52.9918H352.907V56.3186H348.722C343.423 56.3186 340.576 54.1575 340.576 48.1131V29.6982Z" fill="#1C263B"/>
<path d="M373.391 56.7639C364.737 56.7639 358.437 50.7784 358.437 41.1846C358.437 31.5908 364.632 25.6053 373.391 25.6053C382.15 25.6053 387.785 31.9248 387.785 39.6326C387.785 40.8506 387.784 41.6299 387.672 42.6843H362.819C362.589 42.6843 362.404 42.8873 362.417 43.1165C362.931 49.9336 367.808 53.4961 373.384 53.4961C378.459 53.4961 381.932 50.9028 383.125 46.9998C383.171 46.8427 383.316 46.7313 383.481 46.7313H387.336C385.939 52.4418 381.029 56.7705 373.384 56.7705L373.391 56.7639ZM362.832 39.5147H383.428C383.646 39.5147 383.83 39.3248 383.83 39.1087C383.797 32.3374 378.755 28.9255 373.226 28.9255C367.696 28.9255 363.05 32.3243 362.43 39.0759C362.411 39.3051 362.602 39.5147 362.832 39.5147Z" fill="#1C263B"/>
<path d="M440.351 39.017C440.351 32.3046 436.838 28.8665 431.421 28.8665C426.004 28.8665 421.99 32.5273 421.99 39.9011V56.312H418.141V39.0104C418.141 32.2981 414.569 28.86 409.158 28.86C403.747 28.86 399.727 32.5207 399.727 39.8945V56.3055H395.819V26.031H399.727V31.2437C401.678 27.4193 405.533 25.4743 409.824 25.4743C414.602 25.4743 418.741 27.583 420.744 32.0361C420.883 32.3504 421.298 32.3504 421.43 32.0361C423.315 27.6747 427.533 25.4743 432.093 25.4743C438.842 25.4743 444.207 29.6851 444.207 38.5586V56.3055H440.351V39.0039V39.017Z" fill="#1C263B"/>
<path d="M464.229 56.7639C457.309 56.7639 452.452 53.3258 451.951 47.7791H455.964C456.301 51.1058 459.2 53.4896 464.17 53.4896C468.526 53.4896 470.978 51.1582 470.978 48.2768C470.978 40.7917 452.676 45.1727 452.676 33.8042C452.676 29.3119 456.973 25.5988 463.392 25.5988C469.811 25.5988 474.22 29.0368 474.55 34.8586H470.642C470.418 31.4729 467.907 28.9255 463.273 28.9255C459.2 28.9255 456.63 31.0865 456.63 33.7519C456.63 41.9573 474.655 37.5763 474.827 48.2834C474.827 53.1621 470.536 56.7704 464.222 56.7704L464.229 56.7639Z" fill="#1C263B"/>
<path d="M46.2659 9.74443H51.802V15.2453C51.802 16.5878 50.708 17.6749 49.3569 17.6749H43.8208V12.174C43.8208 10.8315 44.9148 9.74443 46.2659 9.74443Z" fill="#57BC79"/>
</svg>
